#N canvas 49 19 1924 1002 12;
#X obj 189 157 s clock;
#X obj 189 48 netreceive -u 6000;
#X obj 63 74 loadbang;
#X msg 63 98 \; pd dsp 1;
#N canvas -181 124 1920 1016 mixer 0;
#X obj 395 154 catch~ chL;
#X obj 518 154 catch~ chR;
#X obj 396 265 lop~ 20000;
#X obj 396 289 hip~ 0;
#X obj 519 264 lop~ 20000;
#X obj 519 288 hip~ 0;
#X obj 916 64 inlet;
#X obj 947 403 r bpm;
#X floatatom 947 427 5 0 0 0 - - - 0;
#X obj 945 492 /;
#X msg 945 458 60000;
#X floatatom 915 556 5 0 0 0 - - - 0;
#X obj 915 323 bng 15 250 50 0 empty empty empty 17 7 0 10 #fcfcfc #000000 #000000;
#X floatatom 657 246 5 0 0 0 - - - 0;
#X floatatom 736 270 5 0 0 0 - - - 0;
#X obj 945 522 * 3;
#X obj 398 433 rev1~;
#X obj 444 566 dac~;
#X obj 497 433 rev1~;
#X obj 398 457 hip~ 2000;
#X obj 494 465 hip~ 2000;
#X msg 415 390 50;
#X obj 423 351 loadbang;
#X obj 494 489 *~ 0;
#X obj 398 481 *~ 0;
#X obj 1077 287 / 100;
#X obj 494 513 delwrite~ rev_del 100;
#X obj 500 536 delread~ rev_del 25;
#X obj 657 198 line;
#X obj 915 425 bng 15 250 50 0 empty empty empty 17 7 0 10 #fcfcfc #000000 #000000;
#X floatatom 1202 368 5 0 0 0 - - - 0;
#X obj 1236 344 bng 15 250 50 0 empty empty empty 17 7 0 10 #fcfcfc #000000 #000000;
#X obj 1202 344 * 2;
#X floatatom 1190 465 5 0 0 0 - - - 0;
#X obj 1190 417 line;
#X msg 812 178 180;
#X obj 990 331 loadbang;
#X obj 990 355 del 3;
#N canvas 76 76 450 250 (subpatch) 0;
#X array glitchArray 4000 float 4;
#X coords 0 1 3999 -1 200 140 1;
#X restore 1604 215 graph;
#X msg 1642 656 stop;
#X obj 1306 442 bng 15 250 50 0 empty empty empty 17 7 0 10 #fcfcfc #000000 #000000;
#X obj 1250 553 metro;
#X obj 1397 659 catch~ glitchFeed;
#X obj 1487 360 r clock;
#X obj 1487 398 mod 6;
#X obj 1487 422 sel 0;
#X obj 1389 470 sel 0;
#X obj 1389 446 mod 4;
#X obj 1292 714 delwrite~ glitch_del 100;
#X obj 1248 666 *~ 0;
#X obj 1237 87 route rec vol trig;
#X obj 1248 690 throw~ chL;
#X obj 1292 764 throw~ chR;
#X floatatom 1395 311 5 0 0 0 - - - 0;
#X floatatom 1367 554 5 0 0 0 - - - 0;
#X obj 1367 530 + 5;
#X obj 1642 628 del 100;
#X obj 1248 615 hip~ 180;
#X obj 1292 740 delread~ glitch_del 33;
#X obj 788 327 loadbang;
#X msg 749 384 20000;
#X obj 735 222 line;
#X obj 1640 600 tabwrite~ glitchArray;
#X obj 1248 591 tabplay~ glitchArray;
#X obj 1367 506 random 50;
#X msg 1638 574 start 0;
#X obj 241 848 *~ 0;
#X obj 572 830 *~ 0;
#X obj 915 88 route lp hp verb glitch comb;
#X obj 897 747 route vol tex;
#X obj 484 736 hip~ 500;
#X obj 233 706 hip~ 500;
#X obj 240 651 delwrite~ combL 30;
#X obj 233 682 delread4~ combL 30;
#X obj 491 681 delwrite~ combR 30;
#X obj 484 712 delread4~ combR 30;
#X obj 233 730 lop~ 7000;
#X obj 484 760 lop~ 7000;
#X obj 1079 763 s audioViz;
#X obj 1042 651 snapshot~;
#X obj 1138 523 bng 19 250 50 0 empty empty empty 0 -10 0 12 #fcfcfc #000000 #000000;
#X obj 1096 547 loadbang;
#X floatatom 1042 675 5 0 0 0 - - - 0;
#X obj 1042 722 * 100;
#X obj 1042 698 + 0;
#X obj 1127 603 metro 2;
#X connect 0 0 2 0;
#X connect 0 0 72 0;
#X connect 1 0 4 0;
#X connect 1 0 74 0;
#X connect 2 0 3 0;
#X connect 3 0 16 0;
#X connect 3 0 17 0;
#X connect 3 0 79 0;
#X connect 4 0 5 0;
#X connect 5 0 18 0;
#X connect 5 0 17 1;
#X connect 6 0 68 0;
#X connect 7 0 8 0;
#X connect 7 0 29 0;
#X connect 8 0 9 1;
#X connect 9 0 15 0;
#X connect 9 0 32 0;
#X connect 10 0 9 0;
#X connect 11 0 28 1;
#X connect 12 0 11 0;
#X connect 13 0 2 1;
#X connect 13 0 4 1;
#X connect 14 0 5 1;
#X connect 14 0 3 1;
#X connect 15 0 11 0;
#X connect 16 0 19 0;
#X connect 18 0 20 0;
#X connect 19 0 24 0;
#X connect 20 0 23 0;
#X connect 21 0 16 1;
#X connect 21 0 18 1;
#X connect 22 0 21 0;
#X connect 23 0 26 0;
#X connect 24 0 17 0;
#X connect 25 0 34 0;
#X connect 27 0 17 1;
#X connect 28 0 13 0;
#X connect 29 0 10 0;
#X connect 30 0 34 1;
#X connect 31 0 30 0;
#X connect 32 0 30 0;
#X connect 33 0 23 1;
#X connect 33 0 24 1;
#X connect 34 0 33 0;
#X connect 35 0 61 1;
#X connect 36 0 37 0;
#X connect 37 0 8 0;
#X connect 37 0 10 0;
#X connect 39 0 62 0;
#X connect 40 0 41 0;
#X connect 40 0 64 0;
#X connect 41 0 63 0;
#X connect 42 0 62 0;
#X connect 43 0 44 0;
#X connect 43 0 47 0;
#X connect 44 0 45 0;
#X connect 45 0 65 0;
#X connect 46 0 40 0;
#X connect 47 0 46 0;
#X connect 49 0 48 0;
#X connect 49 0 51 0;
#X connect 50 0 65 0;
#X connect 50 1 49 1;
#X connect 50 2 53 0;
#X connect 53 0 47 1;
#X connect 55 0 41 1;
#X connect 55 0 54 0;
#X connect 56 0 39 0;
#X connect 57 0 49 0;
#X connect 58 0 52 0;
#X connect 59 0 11 0;
#X connect 59 0 60 0;
#X connect 60 0 28 0;
#X connect 61 0 14 0;
#X connect 63 0 57 0;
#X connect 64 0 55 0;
#X connect 65 0 62 0;
#X connect 66 0 2 0;
#X connect 67 0 4 0;
#X connect 68 0 12 0;
#X connect 68 0 28 0;
#X connect 68 1 35 0;
#X connect 68 1 61 0;
#X connect 68 2 31 0;
#X connect 68 2 25 0;
#X connect 68 3 65 0;
#X connect 68 3 50 0;
#X connect 68 3 56 0;
#X connect 68 4 69 0;
#X connect 69 0 67 1;
#X connect 69 0 66 1;
#X connect 69 1 73 0;
#X connect 69 1 75 0;
#X connect 70 0 77 0;
#X connect 71 0 76 0;
#X connect 73 0 71 0;
#X connect 75 0 70 0;
#X connect 76 0 66 0;
#X connect 77 0 67 0;
#X connect 79 0 82 0;
#X connect 80 0 85 0;
#X connect 81 0 85 0;
#X connect 82 0 84 0;
#X connect 83 0 78 0;
#X connect 84 0 83 0;
#X connect 85 0 79 0;
#X restore 541 152 pd mixer;
#N canvas 18 61 1924 1016 kick 0;
#X obj 354 13 inlet;
#X obj 229 27 r clock;
#X obj 258 348 readsf~;
#X obj 448 164 del 1;
#X msg 448 189 start;
#X floatatom 229 51 5 0 0 0 - - - 0;
#X floatatom 414 107 5 0 0 0 - - - 0;
#X obj 258 404 *~ 0;
#X floatatom 497 386 5 0 0 0 - - - 0;
#X obj 127 95 loadbang;
#X obj 55 141 bng 15 250 50 0 empty empty empty 17 7 0 10 #fcfcfc #000000 #000000;
#X obj 54 74 symbol;
#X obj 127 196 symbol;
#X msg 127 232 open ./\$1.wav;
#X msg 127 149 samples/kick1;
#X obj 55 197 s kickon;
#X obj 258 428 *~ 0.8;
#X obj 257 573 throw~ chL;
#X obj 257 599 throw~ chR;
#X floatatom 373 79 5 0 0 0 - - - 0;
#X obj 513 591 *~ 0;
#X obj 513 507 clip~ -0.1 0.1;
#X obj 513 555 *~ 2;
#X obj 513 531 hip~ 1000;
#X text 630 53 Receive commands;
#X obj 1072 272 unpack;
#X obj 373 55 route play mod sample vol dist bin;
#N canvas 76 76 1190 590 (subpatch) 0;
#X array kickPattern 16 float 3;
#A 0 1 0 0 0 1 0 0 0 1 0 0 0 1 0 0 0;
#X coords 0 1 16 -1 200 140 1 0 0;
#X restore 1383 99 graph;
#X obj 1384 256 loadbang;
#X msg 1384 279 \; kickPattern 0 0 0 0 0 0 0 0 0 0 0 0 0 0 0 0 0;
#X floatatom 259 173 5 0 0 0 - - - 0;
#X obj 259 196 sel 1;
#X obj 259 149 tabread kickPattern;
#X obj 258 98 mod 16;
#X obj 789 463 baseconverter;
#X msg 877 422 0 1;
#X obj 799 495 list length;
#X floatatom 799 535 5 0 0 0 - - - 0;
#X msg 746 529 8;
#X obj 746 553 -;
#X floatatom 806 437 5 0 0 0 - - - 0;
#X listbox 789 784 20 0 0 0 - - - 0;
#X obj 789 807 list prepend;
#X floatatom 746 577 5 0 0 0 - - - 0;
#X msg 746 618 0 \$1;
#X listbox 746 714 20 0 0 0 - - - 0;
#X obj 877 389 loadbang;
#X obj 1076 460 baseconverter;
#X msg 1164 419 0 1;
#X obj 1086 492 list length;
#X floatatom 1086 532 5 0 0 0 - - - 0;
#X msg 1033 526 8;
#X obj 1033 550 -;
#X floatatom 1093 434 5 0 0 0 - - - 0;
#X listbox 1076 781 20 0 0 0 - - - 0;
#X obj 1076 804 list prepend;
#X floatatom 1033 574 5 0 0 0 - - - 0;
#X msg 1033 615 0 \$1;
#X listbox 1033 711 20 0 0 0 - - - 0;
#X msg 1183 552 const \$1;
#X floatatom 1183 499 5 0 0 0 - - - 0;
#X obj 1183 460 loadbang;
#X obj 1164 394 loadbang;
#X msg 1188 701 const \$1;
#X floatatom 1188 648 5 0 0 0 - - - 0;
#X obj 1188 609 loadbang;
#X obj 1183 576 array define zeroes_K1 10000;
#X obj 1188 725 array define zeroes_K2 10000;
#X obj 1033 639 array get zeroes_K2;
#X obj 746 642 array get zeroes_K1;
#X msg 789 846 \; kickPattern 0 \$1 \$2 \$3 \$4 \$5 \$6 \$7 \$8;
#X msg 1076 843 \; kickPattern 8 \$1 \$2 \$3 \$4 \$5 \$6 \$7 \$8;
#X connect 0 0 26 0;
#X connect 1 0 5 0;
#X connect 2 0 7 0;
#X connect 3 0 4 0;
#X connect 4 0 2 0;
#X connect 5 0 33 0;
#X connect 6 0 33 1;
#X connect 7 0 16 0;
#X connect 7 0 21 0;
#X connect 8 0 7 1;
#X connect 9 0 14 0;
#X connect 10 0 12 0;
#X connect 10 0 15 0;
#X connect 11 0 12 0;
#X connect 12 0 13 0;
#X connect 13 0 2 0;
#X connect 14 0 12 0;
#X connect 16 0 17 0;
#X connect 16 0 18 0;
#X connect 20 0 17 0;
#X connect 20 0 18 0;
#X connect 21 0 23 0;
#X connect 22 0 20 0;
#X connect 23 0 22 0;
#X connect 25 0 40 0;
#X connect 25 1 53 0;
#X connect 26 0 19 0;
#X connect 26 1 6 0;
#X connect 26 2 11 0;
#X connect 26 3 8 0;
#X connect 26 4 20 1;
#X connect 26 5 25 0;
#X connect 28 0 29 0;
#X connect 30 0 31 0;
#X connect 31 0 10 0;
#X connect 31 0 3 0;
#X connect 32 0 30 0;
#X connect 33 0 32 0;
#X connect 34 0 36 0;
#X connect 34 0 38 0;
#X connect 34 0 41 0;
#X connect 35 0 34 1;
#X connect 36 0 37 0;
#X connect 37 0 39 1;
#X connect 38 0 39 0;
#X connect 39 0 43 0;
#X connect 40 0 34 0;
#X connect 41 0 42 0;
#X connect 42 0 70 0;
#X connect 43 0 44 0;
#X connect 44 0 69 0;
#X connect 45 0 42 1;
#X connect 46 0 35 0;
#X connect 47 0 49 0;
#X connect 47 0 51 0;
#X connect 47 0 54 0;
#X connect 48 0 47 1;
#X connect 49 0 50 0;
#X connect 50 0 52 1;
#X connect 51 0 52 0;
#X connect 52 0 56 0;
#X connect 53 0 47 0;
#X connect 54 0 55 0;
#X connect 55 0 71 0;
#X connect 56 0 57 0;
#X connect 57 0 68 0;
#X connect 58 0 55 1;
#X connect 59 0 66 0;
#X connect 60 0 59 0;
#X connect 61 0 60 0;
#X connect 62 0 48 0;
#X connect 63 0 67 0;
#X connect 64 0 63 0;
#X connect 65 0 64 0;
#X connect 68 0 58 0;
#X connect 69 0 45 0;
#X restore 267 120 pd kick;
#N canvas 20 42 1920 1016 snare 0;
#X obj 354 13 inlet;
#X obj 229 27 r clock;
#X obj 260 315 readsf~;
#X obj 448 164 del 1;
#X msg 448 189 start;
#X floatatom 229 51 5 0 0 0 - - - 0;
#X floatatom 416 80 5 0 0 0 - - - 0;
#X obj 260 371 *~ 0;
#X floatatom 502 269 5 0 0 0 - - - 0;
#X obj 127 95 loadbang;
#X obj 55 141 bng 15 250 50 0 empty empty empty 17 7 0 10 #fcfcfc #000000 #000000;
#X obj 54 74 symbol;
#X obj 127 196 symbol;
#X msg 127 232 open ./\$1.wav;
#X obj 260 395 *~ 0.8;
#X obj 259 540 throw~ chL;
#X obj 259 566 throw~ chR;
#X floatatom 373 79 5 0 0 0 - - - 0;
#X msg 127 149 samples/snr1;
#X obj 260 347 lop~ 20000;
#X obj 855 404 baseconverter;
#X msg 943 363 0 1;
#X obj 865 436 list length;
#X floatatom 865 476 5 0 0 0 - - - 0;
#X msg 812 470 8;
#X obj 812 494 -;
#X floatatom 872 378 5 0 0 0 - - - 0;
#X listbox 855 725 20 0 0 0 - - - 0;
#X obj 855 748 list prepend;
#X floatatom 812 518 5 0 0 0 - - - 0;
#X msg 812 559 0 \$1;
#X listbox 812 655 20 0 0 0 - - - 0;
#X obj 943 330 loadbang;
#X obj 1142 401 baseconverter;
#X msg 1230 360 0 1;
#X obj 1152 433 list length;
#X floatatom 1152 473 5 0 0 0 - - - 0;
#X msg 1099 467 8;
#X obj 1099 491 -;
#X floatatom 1159 375 5 0 0 0 - - - 0;
#X listbox 1142 722 20 0 0 0 - - - 0;
#X obj 1142 745 list prepend;
#X floatatom 1099 515 5 0 0 0 - - - 0;
#X msg 1099 556 0 \$1;
#X listbox 1099 652 20 0 0 0 - - - 0;
#X msg 1249 493 const \$1;
#X floatatom 1249 440 5 0 0 0 - - - 0;
#X obj 1249 401 loadbang;
#X obj 1230 335 loadbang;
#X obj 1072 272 unpack;
#X msg 1254 642 const \$1;
#X floatatom 1254 589 5 0 0 0 - - - 0;
#X obj 1254 550 loadbang;
#N canvas 76 76 1190 590 (subpatch) 0;
#X array snarePattern 16 float 3;
#A 0 0 0 0 1 0 0 1 0 0 0 0 1 0 0 1 0;
#X coords 0 1 16 -1 200 140 1 0 0;
#X restore 1383 99 graph;
#X obj 1384 256 loadbang;
#X msg 1142 784 \; snarePattern 8 \$1 \$2 \$3 \$4 \$5 \$6 \$7 \$8;
#X msg 855 787 \; snarePattern 0 \$1 \$2 \$3 \$4 \$5 \$6 \$7 \$8;
#X obj 812 583 array get zeroes_Sn1;
#X obj 1099 580 array get zeroes_Sn2;
#X obj 1249 517 array define zeroes_Sn1 10000;
#X obj 1254 666 array define zeroes_Sn2 10000;
#X obj 373 55 route play mod sample vol lp bin;
#X floatatom 294 198 5 0 0 0 - - - 0;
#X obj 294 221 sel 1;
#X obj 258 98 mod 16;
#X obj 294 174 tabread snarePattern;
#X msg 1384 279 \; snarePattern 0 0 0 0 0 0 0 0 0 0 0 0 0 0 0 0 0;
#X connect 0 0 61 0;
#X connect 1 0 5 0;
#X connect 2 0 19 0;
#X connect 3 0 4 0;
#X connect 4 0 2 0;
#X connect 5 0 64 0;
#X connect 6 0 64 1;
#X connect 7 0 14 0;
#X connect 8 0 7 1;
#X connect 9 0 18 0;
#X connect 10 0 12 0;
#X connect 11 0 12 0;
#X connect 12 0 13 0;
#X connect 13 0 2 0;
#X connect 14 0 15 0;
#X connect 14 0 16 0;
#X connect 18 0 12 0;
#X connect 19 0 7 0;
#X connect 20 0 22 0;
#X connect 20 0 24 0;
#X connect 20 0 27 0;
#X connect 21 0 20 1;
#X connect 22 0 23 0;
#X connect 23 0 25 1;
#X connect 24 0 25 0;
#X connect 25 0 29 0;
#X connect 26 0 20 0;
#X connect 27 0 28 0;
#X connect 28 0 56 0;
#X connect 29 0 30 0;
#X connect 30 0 57 0;
#X connect 31 0 28 1;
#X connect 32 0 21 0;
#X connect 33 0 35 0;
#X connect 33 0 37 0;
#X connect 33 0 40 0;
#X connect 34 0 33 1;
#X connect 35 0 36 0;
#X connect 36 0 38 1;
#X connect 37 0 38 0;
#X connect 38 0 42 0;
#X connect 39 0 33 0;
#X connect 40 0 41 0;
#X connect 41 0 55 0;
#X connect 42 0 43 0;
#X connect 43 0 58 0;
#X connect 44 0 41 1;
#X connect 45 0 59 0;
#X connect 46 0 45 0;
#X connect 47 0 46 0;
#X connect 48 0 34 0;
#X connect 49 0 26 0;
#X connect 49 1 39 0;
#X connect 50 0 60 0;
#X connect 51 0 50 0;
#X connect 52 0 51 0;
#X connect 54 0 66 0;
#X connect 57 0 31 0;
#X connect 58 0 44 0;
#X connect 61 0 17 0;
#X connect 61 1 6 0;
#X connect 61 2 11 0;
#X connect 61 3 8 0;
#X connect 61 4 19 1;
#X connect 61 5 49 0;
#X connect 62 0 63 0;
#X connect 63 0 3 0;
#X connect 63 0 10 0;
#X connect 64 0 65 0;
#X connect 65 0 62 0;
#X restore 306 152 pd snare;
#N canvas 184 -11 1920 1016 hhc 0;
#N canvas 0 50 450 250 (subpatch) 0;
#X array hhcArray 16 float 3;
#A 0 1 0 1 1 1 1 1 1 0 1 1 0 0 0 0 1;
#X coords 0 0 16 1 200 140 1 0 0;
#X restore 60 60 graph;
#X obj 408 150 loadbang;
#X msg 851 158 list \$1 \$2 \$3 \$4 \$5 \$6 \$7 \$8;
#X msg 851 182 \; hhcArray 0 \$1 \$2 \$3 \$4 \$5 \$6 \$7 \$8;
#X obj 851 49 inlet;
#X obj 861 393 r clock;
#X floatatom 861 543 5 0 0 0 - - - 0;
#X obj 861 566 sel 1;
#X obj 859 678 readsf~;
#X obj 1054 654 del 1;
#X msg 1054 678 start;
#X obj 861 639 bng 15 250 50 0 empty empty empty 17 7 0 10 #fcfcfc #000000 #000000;
#X floatatom 861 441 5 0 0 0 - - - 0;
#X obj 859 702 *~ 0;
#X floatatom 1115 678 5 0 0 0 - - - 0;
#X obj 861 799 delread~ hhc_del;
#X obj 859 726 delwrite~ hhc_del 5000;
#X obj 1194 754 loadbang;
#X msg 1194 778 0;
#X obj 612 163 bng 15 250 50 0 empty empty empty 17 7 0 10 #fcfcfc #000000 #000000;
#X obj 407 122 bng 15 250 50 0 empty empty empty 17 7 0 10 #fcfcfc #000000 #000000;
#X obj 861 464 + 0;
#X obj 1284 210 loadbang;
#X obj 1284 300 symbol;
#X msg 1284 349 open ./\$1.wav;
#X msg 1284 258 samples/hhc;
#X obj 861 823 *~ 0.6;
#X obj 861 847 throw~ chL;
#X obj 946 841 *~ 0.5;
#X obj 946 865 throw~ chR;
#X obj 779 928 throw~ glitchThrow;
#X obj 1063 929 throw~ glitchFeed;
#X obj 1043 896 *~ 0.4;
#X obj 100 480 baseconverter;
#X msg 188 439 0 1;
#X obj 110 512 list length;
#X floatatom 110 552 5 0 0 0 - - - 0;
#X msg 57 546 8;
#X obj 57 570 -;
#X floatatom 117 454 5 0 0 0 - - - 0;
#X listbox 100 801 20 0 0 0 - - - 0;
#X obj 100 824 list prepend;
#X floatatom 57 594 5 0 0 0 - - - 0;
#X msg 57 635 0 \$1;
#X listbox 57 731 20 0 0 0 - - - 0;
#X obj 188 406 loadbang;
#X obj 387 477 baseconverter;
#X msg 475 436 0 1;
#X obj 397 509 list length;
#X floatatom 397 549 5 0 0 0 - - - 0;
#X msg 344 543 8;
#X obj 344 567 -;
#X floatatom 404 451 5 0 0 0 - - - 0;
#X listbox 387 798 20 0 0 0 - - - 0;
#X obj 387 821 list prepend;
#X floatatom 344 591 5 0 0 0 - - - 0;
#X msg 344 632 0 \$1;
#X listbox 344 728 20 0 0 0 - - - 0;
#X msg 494 569 const \$1;
#X floatatom 494 516 5 0 0 0 - - - 0;
#X obj 494 477 loadbang;
#X obj 475 411 loadbang;
#X obj 317 348 unpack;
#X msg 499 718 const \$1;
#X floatatom 499 665 5 0 0 0 - - - 0;
#X obj 499 626 loadbang;
#X obj 855 83 route bin vol del mod sample all none offset;
#X obj 57 659 array get zeroes_H1;
#X obj 344 656 array get zeroes_H2;
#X obj 494 593 array define zeroes_H1 10000;
#X obj 499 742 array define zeroes_H2 10000;
#X obj 861 417 mod 16;
#X msg 597 237 \; hhcArray 0 1 1 1 1 1 1 1 1 1 1 1 1 1 1 1 1;
#X msg 408 185 \; hhcArray 0 0 0 0 0 0 0 0 0 0 0 0 0 0 0 0 0;
#X obj 861 519 tabread hhcArray;
#X msg 100 863 \; hhcArray 0 \$1 \$2 \$3 \$4 \$5 \$6 \$7 \$8;
#X msg 387 860 \; hhcArray 8 \$1 \$2 \$3 \$4 \$5 \$6 \$7 \$8;
#X floatatom 898 466 5 0 0 0 - - - 0;
#X connect 1 0 73 0;
#X connect 2 0 3 0;
#X connect 4 0 66 0;
#X connect 5 0 71 0;
#X connect 6 0 7 0;
#X connect 7 0 11 0;
#X connect 8 0 13 0;
#X connect 9 0 10 0;
#X connect 10 0 8 0;
#X connect 11 0 9 0;
#X connect 11 0 23 0;
#X connect 12 0 21 0;
#X connect 13 0 16 0;
#X connect 13 0 32 0;
#X connect 14 0 15 0;
#X connect 14 0 16 0;
#X connect 15 0 26 0;
#X connect 17 0 18 0;
#X connect 18 0 15 0;
#X connect 19 0 72 0;
#X connect 20 0 73 0;
#X connect 21 0 74 0;
#X connect 22 0 25 0;
#X connect 23 0 24 0;
#X connect 24 0 8 0;
#X connect 25 0 23 0;
#X connect 26 0 27 0;
#X connect 26 0 28 0;
#X connect 26 0 30 0;
#X connect 28 0 29 0;
#X connect 32 0 31 0;
#X connect 33 0 35 0;
#X connect 33 0 37 0;
#X connect 33 0 40 0;
#X connect 34 0 33 1;
#X connect 35 0 36 0;
#X connect 36 0 38 1;
#X connect 37 0 38 0;
#X connect 38 0 42 0;
#X connect 39 0 33 0;
#X connect 40 0 41 0;
#X connect 41 0 75 0;
#X connect 42 0 43 0;
#X connect 43 0 67 0;
#X connect 44 0 41 1;
#X connect 45 0 34 0;
#X connect 46 0 48 0;
#X connect 46 0 50 0;
#X connect 46 0 53 0;
#X connect 47 0 46 1;
#X connect 48 0 49 0;
#X connect 49 0 51 1;
#X connect 50 0 51 0;
#X connect 51 0 55 0;
#X connect 52 0 46 0;
#X connect 53 0 54 0;
#X connect 54 0 76 0;
#X connect 55 0 56 0;
#X connect 56 0 68 0;
#X connect 57 0 54 1;
#X connect 58 0 69 0;
#X connect 59 0 58 0;
#X connect 60 0 59 0;
#X connect 61 0 47 0;
#X connect 62 0 39 0;
#X connect 62 1 52 0;
#X connect 63 0 70 0;
#X connect 64 0 63 0;
#X connect 65 0 64 0;
#X connect 66 0 62 0;
#X connect 66 1 13 1;
#X connect 66 2 14 0;
#X connect 66 3 71 1;
#X connect 66 4 23 0;
#X connect 66 5 19 0;
#X connect 66 6 20 0;
#X connect 66 7 77 0;
#X connect 67 0 44 0;
#X connect 68 0 57 0;
#X connect 71 0 12 0;
#X connect 74 0 6 0;
#X connect 77 0 21 1;
#X restore 345 185 pd hhc;
#N canvas 228 228 1920 1016 clap 0;
#X obj 459 24 inlet;
#X msg 148 311 start;
#X obj 148 287 del 1;
#X obj 148 336 readsf~;
#X obj 148 360 *~ 0;
#X obj 300 114 r clock;
#X obj 300 162 + 0;
#X obj 300 138 % 16;
#X obj 300 186 *;
#X floatatom 350 139 5 0 0 0 - - - 0;
#X obj 300 253 <;
#X obj 300 322 bng 15 250 50 0 empty empty empty 17 7 0 10 #fcfcfc #000000 #000000;
#X obj 300 210 % 16;
#X obj 300 291 select 1;
#X obj 148 468 *~;
#X floatatom 580 421 5 0 0 0 - - - 0;
#X obj 580 444 expr pow(2 \, $f1) -1;
#X floatatom 580 468 5 0 0 0 - - - 0;
#X obj 580 491 expr 1 / $f1;
#X floatatom 580 515 5 0 0 0 - - - 0;
#X obj 148 444 expr~ round($v1/$f2);
#X msg 642 395 16;
#X obj 646 363 loadbang;
#X obj 38 391 loadbang;
#X obj 300 354 bng 15 250 50 0 empty empty empty 17 7 0 10 #fcfcfc #000000 #000000;
#X obj 38 358 symbol;
#X obj 38 480 symbol;
#X msg 38 535 open ./\$1.wav;
#X msg 38 433 samples/clap;
#X obj 148 492 *~ 0.8;
#X obj 148 563 throw~ chL;
#X obj 148 530 throw~ chR;
#X obj 459 82 route euc offset mod bit vol sample;
#X connect 0 0 32 0;
#X connect 1 0 3 0;
#X connect 2 0 1 0;
#X connect 3 0 4 0;
#X connect 4 0 20 0;
#X connect 5 0 7 0;
#X connect 6 0 8 0;
#X connect 7 0 6 0;
#X connect 8 0 12 0;
#X connect 9 0 8 1;
#X connect 9 0 10 1;
#X connect 10 0 13 0;
#X connect 11 0 2 0;
#X connect 11 0 24 0;
#X connect 12 0 10 0;
#X connect 13 0 11 0;
#X connect 14 0 29 0;
#X connect 15 0 16 0;
#X connect 16 0 17 0;
#X connect 17 0 18 0;
#X connect 18 0 19 0;
#X connect 19 0 20 1;
#X connect 19 0 14 1;
#X connect 20 0 14 0;
#X connect 21 0 15 0;
#X connect 22 0 21 0;
#X connect 23 0 28 0;
#X connect 24 0 26 0;
#X connect 25 0 26 0;
#X connect 26 0 27 0;
#X connect 27 0 3 0;
#X connect 28 0 26 0;
#X connect 29 0 30 0;
#X connect 29 0 31 0;
#X connect 32 0 9 0;
#X connect 32 1 6 1;
#X connect 32 2 12 1;
#X connect 32 3 15 0;
#X connect 32 4 4 1;
#X connect 32 5 25 0;
#X restore 424 252 pd clap;
#N canvas 38 38 450 300 tempo 0;
#X obj 171 37 inlet;
#X obj 111 168 metro 125;
#X obj 111 37 inlet;
#X obj 111 192 f;
#X obj 143 192 + 1;
#X obj 111 262 outlet;
#X floatatom 111 216 5 0 0 0 - - - 0;
#X obj 171 103 /;
#X msg 171 69 60000;
#X obj 171 127 / 4;
#X obj 227 56 s bpm;
#X obj 292 25 loadbang;
#X msg 292 62 120;
#X obj 256 161 s deltime;
#X obj 279 117 * 3;
#X text 225 93 Bpm to ms calculation;
#X connect 0 0 7 1;
#X connect 0 0 8 0;
#X connect 0 0 10 0;
#X connect 1 0 3 0;
#X connect 2 0 1 0;
#X connect 3 0 4 0;
#X connect 3 0 5 0;
#X connect 3 0 6 0;
#X connect 4 0 3 1;
#X connect 7 0 9 0;
#X connect 8 0 7 0;
#X connect 9 0 1 1;
#X connect 9 0 14 0;
#X connect 11 0 12 0;
#X connect 11 0 8 0;
#X connect 12 0 7 1;
#X connect 12 0 10 0;
#X connect 12 0 7 0;
#X connect 14 0 13 0;
#X restore 189 113 pd tempo;
#N canvas 15 32 1920 1016 bass 1;
#X obj 943 258 f;
#X obj 980 259 + 1;
#X obj 943 286 mod 1;
#X obj 943 310 sel 0;
#X obj 943 334 f;
#X obj 981 334 + 1;
#N canvas 0 50 450 250 (subpatch) 0;
#X array bassRiff 8 float 3;
#A 0 12 10 0 7 10 12 7 0;
#X coords 0 0 8 12 200 140 1 0 0;
#X restore 1303 137 graph;
#X msg 1211 291 \; bassRiff 0 \$1 \$2 \$3 \$4 \$5 \$6 \$7 \$8;
#N canvas 76 76 1190 590 (subpatch) 0;
#X array bassPattern 16 float 3;
#A 0 0 1 0 0 0 1 1 1 0 0 1 1 1 1 0 1;
#X coords 0 1 16 -1 200 140 1;
#X restore 1516 136 graph;
#X obj 783 128 inlet;
#X obj 783 207 route space;
#X obj 943 358 mod 8;
#X msg 1211 374 \; bassRiff 0 0 2 3 5 7 9 10 12;
#X obj 1211 339 loadbang;
#X obj 782 276 route riffmod;
#X obj 1211 198 route riff;
#X msg 1517 316 \; bassPattern 0 0 0 0 0 0 0 0 0 0 0 0 0 0 0 0 0;
#X obj 1517 293 loadbang;
#X obj 306 59 unpack;
#X obj 943 382 tabread bassRiff;
#X obj 943 478 mtof;
#X obj 941 561 *~;
#X obj 717 411 route vol;
#X obj 1034 502 loadbang;
#X msg 1034 526 0;
#X floatatom 1076 272 5 0 0 0 - - - 0;
#X floatatom 1050 222 5 0 0 0 - - - 0;
#X obj 943 231 r clock;
#X msg 1084 538 1;
#X floatatom 943 457 5 0 0 0 - - - 0;
#N canvas 0 50 450 250 (subpatch) 0;
#X array bassAR 2 float 3;
#A 0 1 300;
#X coords 0 0 2 500 200 140 1 0 0;
#X restore 200 718 graph;
#X obj 102 715 route attack;
#X msg 102 746 \; bassAR 0 \$1;
#X obj 101 792 route decay;
#X msg 101 823 \; bassAR 1 \$1;
#X msg 201 897 \; bassAR 0 5;
#X obj 201 869 loadbang;
#X obj 303 868 loadbang;
#X msg 303 896 \; bassAR 1 200;
#X obj 801 637 mod 16;
#X obj 801 664 tabread bassPattern;
#X floatatom 801 688 5 0 0 0 - - - 0;
#X obj 801 711 sel 1;
#X obj 842 938 vline~;
#X obj 931 720 del;
#X floatatom 833 828 5 0 0 0 - - - 0;
#X obj 833 804 tabread bassAR;
#X msg 833 766 0;
#X floatatom 945 829 5 0 0 0 - - - 0;
#X obj 945 805 tabread bassAR;
#X msg 945 767 1;
#X msg 827 905 1 \$1;
#X msg 880 903 0 \$1;
#X obj 842 962 pow~ 1;
#X obj 942 611 *~;
#X obj 713 562 route patternmod;
#X obj 943 406 + 24;
#X obj 827 383 route pitch;
#X obj 943 430 + 0;
#X obj 942 587 lop~ 20000;
#X obj 1037 582 route lp;
#X obj 701 688 route pow;
#X obj 1568 592 route sqr;
#X obj 1603 528 loadbang;
#X floatatom 717 435 5 0 0 0 - - - 0;
#X msg 1437 615 0;
#X msg 1367 610 1;
#X obj 1569 647 bang;
#X msg 1569 671 0;
#X msg 1615 671 1;
#X obj 943 502 s bassFreq;
#X obj 1043 406 r bassFreq;
#X obj 1487 672 r bassFreq;
#X obj 1743 646 bang;
#X msg 1743 670 0;
#X msg 1789 670 1;
#X obj 1749 839 *~;
#X obj 1088 635 r kickon;
#X obj 1071 719 vline~;
#X obj 943 639 *~;
#X msg 1088 683 1 140;
#X obj 1088 659 del 10;
#X obj 1157 817 throw~ chL;
#X obj 1161 850 throw~ chR;
#X msg 1028 671 0.2 10;
#X obj 1154 892 throw~ glitchFeed;
#X obj 1078 856 hip~ 2000;
#X obj 700 52 route detune;
#X floatatom 1180 493 5 0 0 0 - - - 0;
#X obj 1251 574 line~;
#X obj 1209 527 * 250;
#X msg 1159 553 \$1 \, 200 100;
#X obj 1194 687 +~;
#X obj 306 35 route bin;
#X obj 1743 622 route phz;
#X obj 106 207 baseconverter;
#X msg 194 166 0 1;
#X obj 116 239 list length;
#X floatatom 116 279 5 0 0 0 - - - 0;
#X msg 63 273 8;
#X obj 63 297 -;
#X floatatom 123 181 5 0 0 0 - - - 0;
#X listbox 106 528 20 0 0 0 - - - 0;
#X obj 106 551 list prepend;
#X floatatom 63 321 5 0 0 0 - - - 0;
#X msg 63 362 0 \$1;
#X listbox 63 458 20 0 0 0 - - - 0;
#X obj 194 133 loadbang;
#X obj 393 204 baseconverter;
#X msg 481 163 0 1;
#X obj 403 236 list length;
#X floatatom 403 276 5 0 0 0 - - - 0;
#X msg 350 270 8;
#X obj 350 294 -;
#X floatatom 410 178 5 0 0 0 - - - 0;
#X listbox 393 525 20 0 0 0 - - - 0;
#X obj 393 548 list prepend;
#X floatatom 350 318 5 0 0 0 - - - 0;
#X msg 350 359 0 \$1;
#X listbox 350 455 20 0 0 0 - - - 0;
#X msg 500 296 const \$1;
#X floatatom 500 243 5 0 0 0 - - - 0;
#X obj 500 204 loadbang;
#X obj 481 138 loadbang;
#X msg 505 445 const \$1;
#X floatatom 505 392 5 0 0 0 - - - 0;
#X obj 505 353 loadbang;
#X obj 500 320 array define zeroes_B1 10000;
#X obj 505 469 array define zeroes_B2 10000;
#X obj 63 386 array get zeroes_B1;
#X obj 350 383 array get zeroes_B2;
#X msg 106 590 \; bassPattern 0 \$1 \$2 \$3 \$4 \$5 \$6 \$7 \$8;
#X msg 393 587 \; bassPattern 8 \$1 \$2 \$3 \$4 \$5 \$6 \$7 \$8;
#N canvas 30 12 1920 1016 wavetable 0;
#X obj 55 368 cnv 15 300 300 empty empty Load/Save 20 12 0 14 #ecdcfc #404040 0;
#N canvas 0 50 450 250 (subpatch) 0;
#X array wavetable 515 float 0;
#X coords 0 1 514 -1 400 260 1 0 0;
#X restore 17 20 graph;
#X obj 72 425 loadbang;
#X obj 637 67 inlet;
#X floatatom 530 129 5 0 0 0 - - - 0;
#X obj 530 175 tabosc4~ wavetable;
#X obj 530 152 sig~;
#X obj 529 356 outlet~;
#X obj 731 190 osc~;
#X obj 530 247 +~;
#X msg 72 452 \; wavetable read wvtbl/wave.txt;
#X text 70 398 load present waveshape;
#X msg 66 516 \; wavetable write wvtbl/wave.txt;
#X obj 530 223 hip~ 250;
#X obj 530 271 *~ 0.6;
#X obj 530 199 *~ 1;
#X msg 436 556 \; wavetable read wvtbl/\$1.txt;
#X obj 731 214 *~ 0.8;
#X obj 530 295 lop~ 5000;
#X connect 2 0 10 0;
#X connect 3 0 4 0;
#X connect 4 0 6 0;
#X connect 4 0 8 0;
#X connect 5 0 15 0;
#X connect 6 0 5 0;
#X connect 8 0 17 0;
#X connect 9 0 14 0;
#X connect 13 0 9 0;
#X connect 14 0 18 0;
#X connect 15 0 13 0;
#X connect 17 0 9 1;
#X connect 18 0 7 0;
#X restore 1401 792 pd wavetable;
#X obj 1377 862 *~;
#X obj 1389 540 route wvtbl;
#N canvas 76 76 1920 1016 sqr 0;
#X obj 396 112 inlet;
#X obj 415 432 outlet~;
#X obj 405 199 osc~;
#X obj 405 223 clip~ -0.5 0.5;
#X obj 405 271 *~ 1.5;
#X floatatom 396 136 5 0 0 0 - - - 0;
#X obj 724 233 osc~;
#X obj 724 257 clip~ -0.2 0.2;
#X obj 682 381 +~;
#X obj 724 209 * 1;
#X obj 724 281 hip~ 1000;
#X obj 724 305 *~ 1.5;
#X connect 0 0 2 0;
#X connect 0 0 5 0;
#X connect 2 0 3 0;
#X connect 3 0 4 0;
#X connect 4 0 8 0;
#X connect 5 0 9 0;
#X connect 6 0 7 0;
#X connect 7 0 10 0;
#X connect 8 0 1 0;
#X connect 9 0 6 0;
#X connect 10 0 11 0;
#X connect 11 0 8 1;
#X restore 1537 774 pd sqr;
#X obj 1132 427 osc~;
#X obj 1132 451 clip~ -0.5 0.5;
#X obj 1132 475 *~;
#X obj 1132 499 *~ 1.5;
#X obj 1536 840 *~;
#N canvas 13 0 1920 1016 phz 0;
#X obj 702 551 phasor~;
#X obj 848 526 +~ 0.5;
#X floatatom 702 388 5 0 0 0 - - - 0;
#X obj 702 414 sig~;
#X obj 701 513 +~;
#X obj 728 474 *~ 1;
#X obj 848 497 *~ 0.2;
#X obj 728 443 osc~ 4;
#X obj 740 293 inlet;
#X obj 702 808 outlet~;
#X obj 848 467 phasor~ 0.05;
#X obj 743 696 +~;
#X obj 940 389 random 100;
#X obj 900 290 bng 19 250 50 0 empty empty empty 0 -10 0 12 #fcfcfc #000000 #000000;
#X floatatom 940 437 5 0 0 0 - - - 0;
#X obj 1061 170 f;
#X obj 1149 215 + 1;
#X obj 1061 218 sel 0;
#X obj 1061 194 mod 24;
#X obj 1317 594 del 5;
#X obj 711 759 *~ 0.8;
#X obj 1286 715 line~;
#X obj 566 559 osc~;
#X obj 940 413 / 100;
#X obj 625 667 *~ 0.65;
#X obj 725 580 expr~ $v1 > $v2;
#X obj 743 720 lop~ 20000;
#X obj 437 338 phasor~;
#X obj 574 313 * 0.001;
#X obj 574 337 phasor~;
#X obj 511 394 +~;
#X obj 437 362 *~ 1;
#X obj 574 361 *~ 1;
#X obj 330 279 * 2;
#X obj 330 303 phasor~;
#X obj 702 633 hip~ 500;
#X msg 1286 680 500 100;
#X msg 1227 683 2000 5;
#X connect 0 0 25 0;
#X connect 1 0 25 1;
#X connect 2 0 3 0;
#X connect 2 0 22 0;
#X connect 3 0 4 0;
#X connect 4 0 0 0;
#X connect 5 0 4 1;
#X connect 6 0 1 0;
#X connect 7 0 5 0;
#X connect 8 0 2 0;
#X connect 8 0 13 0;
#X connect 8 0 28 0;
#X connect 8 0 27 0;
#X connect 8 0 33 0;
#X connect 10 0 6 0;
#X connect 11 0 26 0;
#X connect 12 0 23 0;
#X connect 13 0 15 0;
#X connect 13 0 37 0;
#X connect 13 0 19 0;
#X connect 15 0 16 0;
#X connect 15 0 18 0;
#X connect 16 0 15 1;
#X connect 17 0 12 0;
#X connect 18 0 17 0;
#X connect 19 0 36 0;
#X connect 20 0 9 0;
#X connect 21 0 26 1;
#X connect 22 0 24 0;
#X connect 23 0 10 1;
#X connect 23 0 14 0;
#X connect 24 0 11 0;
#X connect 26 0 20 0;
#X connect 27 0 31 0;
#X connect 28 0 29 0;
#X connect 29 0 32 0;
#X connect 30 0 35 0;
#X connect 31 0 30 0;
#X connect 32 0 30 1;
#X connect 33 0 34 0;
#X connect 34 0 30 1;
#X connect 35 0 11 1;
#X connect 36 0 21 0;
#X connect 37 0 21 0;
#X restore 1617 871 pd phz;
#X obj 1402 573 bng 19 250 50 0 empty empty empty 0 -10 0 12 #fcfcfc #000000 #000000;
#X obj 1498 507 route type;
#X connect 0 0 1 0;
#X connect 0 0 2 0;
#X connect 0 0 26 0;
#X connect 0 0 39 0;
#X connect 1 0 0 1;
#X connect 2 0 3 0;
#X connect 3 0 4 0;
#X connect 4 0 5 0;
#X connect 4 0 11 0;
#X connect 5 0 4 1;
#X connect 9 0 10 0;
#X connect 9 0 14 0;
#X connect 9 0 15 0;
#X connect 9 0 22 0;
#X connect 9 0 33 0;
#X connect 9 0 55 0;
#X connect 9 0 57 0;
#X connect 9 0 60 0;
#X connect 9 0 61 0;
#X connect 9 0 87 0;
#X connect 9 0 31 0;
#X connect 9 0 93 0;
#X connect 9 0 144 0;
#X connect 10 0 2 1;
#X connect 11 0 19 0;
#X connect 11 0 25 0;
#X connect 13 0 12 0;
#X connect 14 0 11 1;
#X connect 15 0 7 0;
#X connect 17 0 16 0;
#X connect 18 0 101 0;
#X connect 18 1 114 0;
#X connect 19 0 56 0;
#X connect 20 0 70 0;
#X connect 21 0 59 0;
#X connect 22 0 21 1;
#X connect 22 0 64 0;
#X connect 23 0 24 0;
#X connect 24 0 21 1;
#X connect 27 0 0 0;
#X connect 28 0 21 1;
#X connect 29 0 20 0;
#X connect 31 0 32 0;
#X connect 33 0 34 0;
#X connect 36 0 35 0;
#X connect 37 0 38 0;
#X connect 39 0 40 0;
#X connect 40 0 41 0;
#X connect 41 0 42 0;
#X connect 42 0 44 0;
#X connect 42 0 47 0;
#X connect 43 0 53 0;
#X connect 44 0 50 0;
#X connect 45 0 51 0;
#X connect 45 0 44 1;
#X connect 46 0 45 0;
#X connect 47 0 46 0;
#X connect 48 0 52 0;
#X connect 49 0 48 0;
#X connect 50 0 49 0;
#X connect 51 0 43 0;
#X connect 52 0 43 0;
#X connect 53 0 54 1;
#X connect 54 0 79 0;
#X connect 55 0 39 1;
#X connect 56 0 58 0;
#X connect 57 0 58 1;
#X connect 58 0 29 0;
#X connect 59 0 54 0;
#X connect 60 0 59 1;
#X connect 61 0 53 1;
#X connect 62 0 67 0;
#X connect 63 0 69 0;
#X connect 65 0 141 1;
#X connect 65 0 76 1;
#X connect 66 0 134 1;
#X connect 67 0 68 0;
#X connect 67 0 69 0;
#X connect 68 0 134 1;
#X connect 68 0 76 1;
#X connect 69 0 141 1;
#X connect 72 0 142 0;
#X connect 72 0 136 0;
#X connect 72 0 133 0;
#X connect 73 0 74 0;
#X connect 73 0 75 0;
#X connect 74 0 141 1;
#X connect 74 0 134 1;
#X connect 75 0 76 1;
#X connect 76 0 21 0;
#X connect 77 0 84 0;
#X connect 77 0 81 0;
#X connect 78 0 79 1;
#X connect 79 0 82 0;
#X connect 79 0 83 0;
#X connect 79 0 86 0;
#X connect 80 0 78 0;
#X connect 81 0 80 0;
#X connect 84 0 78 0;
#X connect 86 0 85 0;
#X connect 88 0 91 0;
#X connect 90 0 88 0;
#X connect 91 0 89 0;
#X connect 92 0 21 0;
#X connect 93 0 18 0;
#X connect 94 0 73 0;
#X connect 95 0 97 0;
#X connect 95 0 99 0;
#X connect 95 0 102 0;
#X connect 96 0 95 1;
#X connect 97 0 98 0;
#X connect 98 0 100 1;
#X connect 99 0 100 0;
#X connect 100 0 104 0;
#X connect 101 0 95 0;
#X connect 102 0 103 0;
#X connect 103 0 131 0;
#X connect 104 0 105 0;
#X connect 105 0 129 0;
#X connect 106 0 103 1;
#X connect 107 0 96 0;
#X connect 108 0 110 0;
#X connect 108 0 112 0;
#X connect 108 0 115 0;
#X connect 109 0 108 1;
#X connect 110 0 111 0;
#X connect 111 0 113 1;
#X connect 112 0 113 0;
#X connect 113 0 117 0;
#X connect 114 0 108 0;
#X connect 115 0 116 0;
#X connect 116 0 132 0;
#X connect 117 0 118 0;
#X connect 118 0 130 0;
#X connect 119 0 116 1;
#X connect 120 0 127 0;
#X connect 121 0 120 0;
#X connect 122 0 121 0;
#X connect 123 0 109 0;
#X connect 124 0 128 0;
#X connect 125 0 124 0;
#X connect 126 0 125 0;
#X connect 129 0 106 0;
#X connect 130 0 119 0;
#X connect 133 0 134 0;
#X connect 134 0 21 0;
#X connect 135 0 143 0;
#X connect 136 0 141 0;
#X connect 137 0 138 0;
#X connect 138 0 139 0;
#X connect 139 0 140 0;
#X connect 141 0 21 0;
#X connect 142 0 76 0;
#X connect 143 0 66 0;
#X connect 143 0 65 0;
#X connect 144 0 62 0;
#X connect 144 0 94 0;
#X connect 144 0 135 0;
#X restore 463 217 pd bass;
#N canvas 7 12 1920 1016 synth 0;
#X obj 943 258 f;
#X obj 980 259 + 1;
#X obj 943 286 mod 1;
#X obj 943 310 sel 0;
#X obj 943 334 f;
#X obj 981 334 + 1;
#N canvas 0 50 450 250 (subpatch) 0;
#X array synthRiff 8 float 3;
#A 0 0 12 10 17 7 10 12 7;
#X coords 0 0 8 12 200 140 1 0 0;
#X restore 1303 137 graph;
#N canvas 76 76 1190 590 (subpatch) 0;
#X array synthPattern 16 float 3;
#A 0 0 0 0 0 0 0 0 1 0 0 0 1 1 1 1 1;
#X coords 0 1 16 -1 200 140 1 0 0;
#X restore 1516 136 graph;
#X obj 783 128 inlet;
#X obj 783 207 route space;
#X obj 943 358 mod 8;
#X obj 1211 339 loadbang;
#X obj 782 276 route riffmod;
#X obj 1211 198 route riff;
#X obj 89 191 baseconverter;
#X msg 177 150 0 1;
#X obj 99 223 list length;
#X floatatom 99 263 5 0 0 0 - - - 0;
#X msg 46 257 8;
#X obj 46 281 -;
#X floatatom 106 165 5 0 0 0 - - - 0;
#X listbox 89 512 20 0 0 0 - - - 0;
#X obj 89 535 list prepend;
#X floatatom 46 305 5 0 0 0 - - - 0;
#X msg 46 346 0 \$1;
#X listbox 46 442 20 0 0 0 - - - 0;
#X obj 1517 293 loadbang;
#X obj 177 117 loadbang;
#X obj 376 188 baseconverter;
#X msg 464 147 0 1;
#X obj 386 220 list length;
#X floatatom 386 260 5 0 0 0 - - - 0;
#X msg 333 254 8;
#X obj 333 278 -;
#X floatatom 393 162 5 0 0 0 - - - 0;
#X listbox 376 509 20 0 0 0 - - - 0;
#X obj 376 532 list prepend;
#X floatatom 333 302 5 0 0 0 - - - 0;
#X msg 333 343 0 \$1;
#X listbox 333 439 20 0 0 0 - - - 0;
#X msg 483 280 const \$1;
#X floatatom 483 227 5 0 0 0 - - - 0;
#X obj 483 188 loadbang;
#X obj 464 122 loadbang;
#X obj 306 59 unpack;
#X obj 943 478 mtof;
#X obj 941 561 *~;
#X obj 717 411 route vol;
#X obj 1034 502 loadbang;
#X msg 1034 526 0;
#X floatatom 1076 272 5 0 0 0 - - - 0;
#X floatatom 1050 222 5 0 0 0 - - - 0;
#X obj 943 231 r clock;
#X msg 1084 538 1;
#X floatatom 943 457 5 0 0 0 - - - 0;
#N canvas 0 50 450 250 (subpatch) 0;
#X array synthAR 2 float 3;
#A 0 5 100;
#X coords 0 0 2 500 200 140 1 0 0;
#X restore 1465 741 graph;
#X obj 1367 738 route attack;
#X obj 1366 815 route decay;
#X obj 1466 892 loadbang;
#X obj 1568 891 loadbang;
#X obj 801 637 mod 16;
#X floatatom 801 688 5 0 0 0 - - - 0;
#X obj 801 711 sel 1;
#X obj 842 938 vline~;
#X obj 931 720 del;
#X floatatom 833 828 5 0 0 0 - - - 0;
#X msg 833 766 0;
#X floatatom 945 829 5 0 0 0 - - - 0;
#X msg 945 767 1;
#X msg 827 905 1 \$1;
#X msg 880 903 0 \$1;
#X obj 842 962 pow~ 1;
#X obj 942 611 *~;
#X obj 713 562 route patternmod;
#X obj 827 383 route pitch;
#X obj 943 430 + 0;
#X obj 942 587 lop~ 20000;
#X obj 1037 582 route lp;
#X obj 701 688 route pow;
#X floatatom 717 435 5 0 0 0 - - - 0;
#X msg 488 429 const \$1;
#X floatatom 488 376 5 0 0 0 - - - 0;
#X obj 488 337 loadbang;
#X msg 89 574 \; synthPattern 0 \$1 \$2 \$3 \$4 \$5 \$6 \$7 \$8;
#X msg 376 571 \; synthPattern 8 \$1 \$2 \$3 \$4 \$5 \$6 \$7 \$8;
#X obj 483 304 array define zeroes_BS 10000;
#X obj 488 453 array define zeroes_AS 10000;
#X obj 46 370 array get zeroes_AS;
#X obj 333 367 array get zeroes_BS;
#X msg 1517 316 \; synthPattern 0 0 0 0 0 0 0 0 0 0 0 0 0 0 0 0 0;
#X msg 1211 291 \; synthRiff 0 \$1 \$2 \$3 \$4 \$5 \$6 \$7 \$8;
#X msg 1211 374 \; synthRiff 0 0 2 3 5 7 9 10 12;
#X msg 1367 769 \; synthAR 0 \$1;
#X msg 1366 846 \; synthAR 1 \$1;
#X msg 1466 920 \; synthAR 0 5;
#X msg 1568 919 \; synthAR 1 200;
#X obj 945 805 tabread synthAR;
#X obj 833 804 tabread synthAR;
#X obj 801 664 tabread synthPattern;
#X obj 943 382 tabread synthRiff;
#N canvas 21 80 1920 1016 synths 1;
#X obj 840 82 route sample;
#N canvas 42 -14 1920 1016 sampler 1;
#X obj 664 242 bng 15 250 50 0 empty empty empty 17 7 0 10 #fcfcfc #000000 #000000;
#X obj 664 262 openpanel;
#N canvas 0 50 450 250 (subpatch) 0;
#X array file 23358 float 4;
#X coords 0 1 23357 -1 200 140 1 0 0;
#X restore 888 227 graph;
#X obj 642 404 soundfiler;
#X obj 530 182 loadbang;
#X obj 530 283 symbol;
#X msg 530 319 open ./\$1.wav;
#X msg 530 236 samples/Corg;
#X obj 367 148 inlet;
#X obj 659 160 inlet;
#X obj 507 704 outlet~;
#X floatatom 642 428 24 0 0 0 - - - 0;
#X obj 659 506 expr 44100/$f1;
#X floatatom 659 530 27 0 0 0 - - - 0;
#X obj 505 540 *~;
#X obj 367 172 - 36;
#X obj 367 196 expr pow (2 \, $f1/12);
#X obj 505 564 tabread~ file;
#X obj 367 259 *;
#X obj 505 466 phasor~;
#X msg 642 380 read -resize \$1 file;
#X obj 505 588 *~ 0.3;
#X msg 539 369 0;
#X floatatom 539 393 5 0 0 0 - - - 0;
#X obj 445 270 r synthTrig;
#X obj 445 294 bng 19 250 50 0 empty empty empty 0 -10 0 12 #fcfcfc #000000 #000000;
#X connect 0 0 1 0;
#X connect 1 0 20 0;
#X connect 3 0 11 0;
#X connect 4 0 7 0;
#X connect 5 0 6 0;
#X connect 6 0 20 0;
#X connect 7 0 5 0;
#X connect 8 0 15 0;
#X connect 9 0 5 0;
#X connect 11 0 12 0;
#X connect 11 0 14 1;
#X connect 12 0 13 0;
#X connect 13 0 18 1;
#X connect 14 0 17 0;
#X connect 15 0 16 0;
#X connect 16 0 18 0;
#X connect 17 0 21 0;
#X connect 18 0 19 0;
#X connect 19 0 14 0;
#X connect 20 0 3 0;
#X connect 21 0 10 0;
#X connect 22 0 23 0;
#X connect 23 0 19 1;
#X connect 24 0 25 0;
#X connect 25 0 22 0;
#X restore 773 201 pd sampler;
#X obj 773 135 r synthFreq;
#N canvas 25 174 1920 1016 fm 0;
#X floatatom 635 432 5 0 0 0 - - - 0;
#X floatatom 735 422 5 0 0 0 - - - 0;
#X obj 732 532 *~;
#X text 623 404 freq input;
#X text 781 423 harmonicity;
#X floatatom 847 512 5 0 0 0 - - - 0;
#X text 860 482 modulation index;
#X obj 843 566 *~;
#X obj 735 607 osc~ 40;
#X obj 735 631 *~;
#X obj 658 652 +~;
#X obj 658 676 osc~;
#X obj 658 737 outlet~;
#X obj 635 306 inlet;
#X obj 743 348 loadbang;
#X obj 862 464 inlet;
#X obj 910 402 loadbang;
#X obj 796 224 inlet;
#X msg 910 426 3;
#X msg 750 388 2;
#X obj 658 700 *~ 0.1;
#X obj 659 368 * 8;
#X connect 0 0 2 0;
#X connect 0 0 10 0;
#X connect 1 0 2 1;
#X connect 2 0 7 0;
#X connect 2 0 8 0;
#X connect 5 0 7 1;
#X connect 7 0 9 1;
#X connect 8 0 9 0;
#X connect 9 0 10 1;
#X connect 10 0 11 0;
#X connect 11 0 20 0;
#X connect 13 0 21 0;
#X connect 14 0 19 0;
#X connect 15 0 5 0;
#X connect 16 0 18 0;
#X connect 17 0 1 0;
#X connect 18 0 5 0;
#X connect 19 0 1 0;
#X connect 20 0 12 0;
#X connect 21 0 0 0;
#X restore 583 188 pd fm;
#X obj 583 82 r synthFreq;
#X obj 615 112 route fmindex;
#X text 802 24 sampleLoop;
#X text 598 39 FM Synth;
#N canvas 114 114 450 300 dual 0;
#X obj 131 119 phasor~;
#X obj 194 119 phasor~;
#X obj 123 14 inlet;
#X obj 162 187 +~;
#X obj 162 211 outlet~;
#X obj 267 26 inlet;
#X obj 312 70 / 100;
#X obj 192 86 *~ 0.999;
#X obj 101 50 * 8;
#X obj 131 143 *~ 0.1;
#X obj 194 143 *~ 0.1;
#X connect 0 0 9 0;
#X connect 1 0 10 0;
#X connect 2 0 8 0;
#X connect 3 0 4 0;
#X connect 5 0 7 1;
#X connect 7 0 1 0;
#X connect 8 0 0 0;
#X connect 8 0 7 0;
#X connect 9 0 3 0;
#X connect 10 0 3 1;
#X restore 407 299 pd dual;
#X obj 407 259 r synthFreq;
#X obj 453 224 route detune;
#X text 428 181 dual osc;
#N canvas -109 189 1920 1016 chooser 0;
#X obj 151 16 inlet;
#X obj 100 71 route fm;
#X obj 199 70 route loop;
#X obj 307 73 route dualosc;
#X obj 800 46 inlet~;
#X obj 926 45 inlet~;
#X obj 1085 48 inlet~;
#X text 801 24 fm in;
#X text 917 20 loop in;
#X text 1068 29 dualosc in;
#X obj 100 95 bang;
#X msg 100 120 0;
#X msg 134 120 1;
#X obj 199 99 bang;
#X msg 199 124 0;
#X msg 233 124 1;
#X obj 307 99 bang;
#X msg 307 124 0;
#X msg 341 124 1;
#X obj 134 219 s fmon;
#X obj 100 191 s fmoff;
#X obj 199 183 s loopoff;
#X obj 233 212 s loopon;
#X obj 307 181 s dualoff;
#X obj 341 212 s dualon;
#X obj 800 70 *~ 1;
#X obj 826 130 r fmon;
#X obj 826 156 r loopoff;
#X obj 826 183 r dualoff;
#X obj 955 164 r dualoff;
#X obj 955 111 r loopon;
#X obj 955 137 r fmoff;
#X obj 1119 115 r dualon;
#X obj 1119 141 r fmoff;
#X obj 1119 168 r loopoff;
#X obj 972 285 outlet~;
#X obj 926 69 *~ 0;
#X obj 1085 72 *~ 0;
#X connect 0 0 1 0;
#X connect 0 0 2 0;
#X connect 0 0 3 0;
#X connect 1 0 10 0;
#X connect 2 0 13 0;
#X connect 3 0 16 0;
#X connect 4 0 25 0;
#X connect 5 0 36 0;
#X connect 6 0 37 0;
#X connect 10 0 11 0;
#X connect 10 0 12 0;
#X connect 11 0 20 0;
#X connect 12 0 19 0;
#X connect 13 0 14 0;
#X connect 13 0 15 0;
#X connect 14 0 21 0;
#X connect 15 0 22 0;
#X connect 16 0 17 0;
#X connect 16 0 18 0;
#X connect 17 0 23 0;
#X connect 18 0 24 0;
#X connect 25 0 35 0;
#X connect 26 0 25 1;
#X connect 27 0 25 1;
#X connect 28 0 25 1;
#X connect 29 0 36 1;
#X connect 30 0 36 1;
#X connect 31 0 36 1;
#X connect 32 0 37 1;
#X connect 33 0 37 1;
#X connect 34 0 37 1;
#X connect 36 0 35 0;
#X connect 37 0 35 0;
#X restore 775 401 pd chooser;
#X obj 775 365 route type;
#X obj 775 425 outlet~;
#X obj 979 39 inlet;
#X obj 599 150 route fmratio;
#X obj 749 165 r midiSynth;
#X connect 0 0 1 1;
#X connect 1 0 12 2;
#X connect 3 0 12 1;
#X connect 4 0 3 0;
#X connect 5 0 3 2;
#X connect 8 0 12 3;
#X connect 9 0 8 0;
#X connect 10 0 8 1;
#X connect 12 0 14 0;
#X connect 13 0 12 0;
#X connect 15 0 0 0;
#X connect 15 0 5 0;
#X connect 15 0 10 0;
#X connect 15 0 13 0;
#X connect 15 0 16 0;
#X connect 16 0 3 1;
#X connect 17 0 1 0;
#X restore 1412 504 pd synths;
#X obj 943 502 s synthFreq;
#X obj 943 406 + 36;
#X obj 943 639 *~;
#X obj 1088 635 r kickon;
#X obj 1071 719 vline~;
#X obj 1088 659 del 10;
#X obj 944 678 hip~ 180;
#X obj 1144 773 throw~ chL;
#X obj 1144 804 throw~ chR;
#X msg 1088 683 1 140;
#X msg 1028 671 0.2 10;
#X obj 283 801 delwrite~ synth_del 1000;
#X obj 499 695 r deltime;
#X obj 284 859 delread4~ synth_del 0;
#X floatatom 499 719 5 0 0 0 - - - 0;
#X obj 581 817 *~ 0;
#X obj 582 868 delwrite~ synth_pipe 100;
#X obj 587 900 delread~ synth_pipe 25;
#X obj 590 694 route delay;
#X obj 524 806 *~;
#X obj 1063 929 throw~ glitchFeed;
#X obj 377 825 *~ 0.5;
#X obj 663 180 route feedback;
#X obj 306 35 route bin;
#X obj 1040 438 s midiSynth;
#X obj 1314 579 s synthTrig;
#X connect 0 0 1 0;
#X connect 0 0 2 0;
#X connect 0 0 51 0;
#X connect 0 0 60 0;
#X connect 1 0 0 1;
#X connect 2 0 3 0;
#X connect 3 0 4 0;
#X connect 4 0 5 0;
#X connect 4 0 10 0;
#X connect 5 0 4 1;
#X connect 8 0 9 0;
#X connect 8 0 12 0;
#X connect 8 0 13 0;
#X connect 8 0 47 0;
#X connect 8 0 56 0;
#X connect 8 0 57 0;
#X connect 8 0 73 0;
#X connect 8 0 74 0;
#X connect 8 0 77 0;
#X connect 8 0 78 0;
#X connect 8 0 100 0;
#X connect 8 0 119 0;
#X connect 8 0 123 0;
#X connect 8 0 124 0;
#X connect 9 0 2 1;
#X connect 10 0 50 0;
#X connect 10 0 99 0;
#X connect 11 0 91 0;
#X connect 12 0 10 1;
#X connect 13 0 90 0;
#X connect 14 0 16 0;
#X connect 14 0 18 0;
#X connect 14 0 21 0;
#X connect 15 0 14 1;
#X connect 16 0 17 0;
#X connect 17 0 19 1;
#X connect 18 0 19 0;
#X connect 19 0 23 0;
#X connect 20 0 14 0;
#X connect 21 0 22 0;
#X connect 22 0 83 0;
#X connect 23 0 24 0;
#X connect 24 0 87 0;
#X connect 25 0 22 1;
#X connect 26 0 89 0;
#X connect 27 0 15 0;
#X connect 28 0 30 0;
#X connect 28 0 32 0;
#X connect 28 0 35 0;
#X connect 29 0 28 1;
#X connect 30 0 31 0;
#X connect 31 0 33 1;
#X connect 32 0 33 0;
#X connect 33 0 37 0;
#X connect 34 0 28 0;
#X connect 35 0 36 0;
#X connect 36 0 84 0;
#X connect 37 0 38 0;
#X connect 38 0 88 0;
#X connect 39 0 36 1;
#X connect 40 0 85 0;
#X connect 41 0 40 0;
#X connect 42 0 41 0;
#X connect 43 0 29 0;
#X connect 44 0 20 0;
#X connect 44 1 34 0;
#X connect 45 0 101 0;
#X connect 46 0 76 0;
#X connect 47 0 46 1;
#X connect 47 0 79 0;
#X connect 48 0 49 0;
#X connect 49 0 46 1;
#X connect 52 0 0 0;
#X connect 53 0 46 1;
#X connect 54 0 45 0;
#X connect 54 0 125 0;
#X connect 56 0 92 0;
#X connect 57 0 93 0;
#X connect 58 0 94 0;
#X connect 59 0 95 0;
#X connect 60 0 98 0;
#X connect 61 0 62 0;
#X connect 62 0 64 0;
#X connect 62 0 66 0;
#X connect 62 0 126 0;
#X connect 63 0 71 0;
#X connect 64 0 68 0;
#X connect 65 0 69 0;
#X connect 65 0 64 1;
#X connect 66 0 97 0;
#X connect 67 0 70 0;
#X connect 68 0 96 0;
#X connect 69 0 63 0;
#X connect 70 0 63 0;
#X connect 71 0 72 1;
#X connect 72 0 103 0;
#X connect 73 0 60 1;
#X connect 74 0 75 1;
#X connect 75 0 54 0;
#X connect 76 0 72 0;
#X connect 77 0 76 1;
#X connect 78 0 71 1;
#X connect 80 0 86 0;
#X connect 81 0 80 0;
#X connect 82 0 81 0;
#X connect 87 0 25 0;
#X connect 88 0 39 0;
#X connect 96 0 67 0;
#X connect 97 0 65 0;
#X connect 98 0 61 0;
#X connect 99 0 102 0;
#X connect 100 0 46 0;
#X connect 102 0 75 0;
#X connect 103 0 107 0;
#X connect 104 0 111 0;
#X connect 104 0 106 0;
#X connect 105 0 103 1;
#X connect 105 0 120 1;
#X connect 106 0 110 0;
#X connect 107 0 112 0;
#X connect 107 0 108 0;
#X connect 107 0 109 0;
#X connect 107 0 121 0;
#X connect 110 0 105 0;
#X connect 111 0 105 0;
#X connect 113 0 114 0;
#X connect 113 0 115 0;
#X connect 114 0 120 0;
#X connect 114 0 122 0;
#X connect 116 0 108 0;
#X connect 116 0 117 0;
#X connect 118 0 109 0;
#X connect 119 0 116 1;
#X connect 120 0 116 0;
#X connect 122 0 112 0;
#X connect 123 0 122 1;
#X connect 124 0 44 0;
#X restore 502 186 pd synth;
#N canvas 15 150 1920 1016 cym 0;
#X obj 354 13 inlet;
#X obj 229 27 r clock;
#X obj 258 231 readsf~;
#X obj 448 164 del 1;
#X msg 448 189 start;
#X obj 258 98 mod 32;
#X floatatom 229 51 5 0 0 0 - - - 0;
#X obj 258 122 sel 0;
#X obj 354 244 route hp;
#X obj 258 263 hip~ 0;
#X floatatom 416 80 5 0 0 0 - - - 0;
#X obj 258 287 *~ 0;
#X floatatom 502 269 5 0 0 0 - - - 0;
#X obj 127 95 loadbang;
#X obj 54 74 symbol;
#X obj 127 196 symbol;
#X msg 127 232 open ./\$1.wav;
#X obj 303 318 *~ 0.8;
#X obj 257 456 throw~ chL;
#X obj 257 482 throw~ chR;
#X obj 373 55 route play mod sample vol;
#X floatatom 373 79 5 0 0 0 - - - 0;
#X msg 127 149 samples/cym;
#X obj 417 461 throw~ glitchFeed;
#X obj 1088 635 r kickon;
#X obj 1071 719 vline~;
#X obj 1088 659 del 10;
#X obj 303 342 *~;
#X msg 1028 671 0.1 10;
#X msg 1088 683 1 160;
#X obj 303 366 *~ 0.5;
#X connect 0 0 8 0;
#X connect 0 0 20 0;
#X connect 1 0 6 0;
#X connect 2 0 9 0;
#X connect 3 0 4 0;
#X connect 4 0 2 0;
#X connect 5 0 7 0;
#X connect 6 0 5 0;
#X connect 7 0 3 0;
#X connect 7 0 15 0;
#X connect 8 0 9 1;
#X connect 9 0 11 0;
#X connect 10 0 5 1;
#X connect 11 0 17 0;
#X connect 12 0 11 1;
#X connect 13 0 22 0;
#X connect 14 0 15 0;
#X connect 15 0 16 0;
#X connect 16 0 2 0;
#X connect 17 0 23 0;
#X connect 17 0 27 0;
#X connect 20 0 21 0;
#X connect 20 1 10 0;
#X connect 20 2 15 0;
#X connect 20 2 14 0;
#X connect 20 3 12 0;
#X connect 21 0 7 1;
#X connect 22 0 15 0;
#X connect 24 0 26 0;
#X connect 24 0 28 0;
#X connect 25 0 27 1;
#X connect 26 0 29 0;
#X connect 27 0 19 0;
#X connect 27 0 30 0;
#X connect 28 0 25 0;
#X connect 29 0 25 0;
#X connect 30 0 18 0;
#X restore 384 217 pd cym;
#N canvas -212 134 1920 1016 sampler 0;
#X obj 729 138 soundfiler;
#X obj 729 193 expr 44100/$f1;
#X floatatom 848 169 10 0 0 0 - - - 0;
#X obj 848 194 s sampleSize;
#X floatatom 794 220 10 0 0 0 - - - 0;
#X obj 729 244 phasor~;
#X obj 729 317 *~;
#X obj 747 278 r sampleSize;
#N canvas 0 50 450 250 (subpatch) 0;
#X array ChanL 204013 float 4;
#X coords 0 1 204012 -1 200 140 1 0 0;
#X restore 1181 118 graph;
#X floatatom 570 224 5 0 0 0 - - - 0;
#X obj 573 193 hsl 128 15 -1 1 0 0 empty empty empty -2 -8 0 10 #c4fcc4 #000000 #000000 0 1;
#X text 610 207 Playback Speed;
#X obj 1031 162 bng 15 250 50 0 empty empty empty 17 7 0 10 #fcfcfc #000000 #000000;
#X obj 663 396 tabread4~ ChanL;
#X obj 794 243 s waveSpeed;
#X obj 902 128 bng 15 250 50 0 empty empty empty 17 7 0 10 #fcfcfc #000000 #000000;
#X obj 565 285 r clock;
#X obj 565 354 sel 0;
#X obj 293 23 inlet;
#X obj 728 89 symbol \$1;
#X obj 565 314 mod 8;
#X floatatom 232 198 5 0 0 0 - - - 0;
#X obj 166 93 bng 15 250 50 0 empty empty empty 17 7 0 10 #fcfcfc #000000 #000000;
#X obj 561 57 r waveSpeed;
#X obj 111 230 f;
#X obj 144 230 + 1;
#X obj 111 254 mod 2;
#X obj 111 278 sel 0;
#X obj 162 280 sel 1;
#X msg 111 302 1;
#X msg 162 304 -1;
#X obj 111 190 bang;
#X obj 129 402 *;
#X obj 27 318 loadbang;
#X obj 663 420 hip~ 180;
#X floatatom 391 72 5 0 0 0 - - - 0;
#X obj 472 716 throw~ chL;
#X obj 639 725 throw~ chR;
#X msg 523 389 0;
#X floatatom 563 430 5 0 1 0 - - - 0;
#X obj 486 337 loadbang;
#X obj 542 596 / 100;
#X obj 897 26 loadbang;
#X msg 884 71 samples/sample;
#X obj 665 577 *~ 0;
#X msg 729 112 read -resize \$1.wav ChanL;
#X obj 743 500 throw~ glitchThrow;
#X obj 843 635 rev1~;
#X obj 890 527 loadbang;
#X obj 940 412 route verb;
#X obj 843 683 hip~ 250;
#X obj 1025 498 / 100;
#X floatatom 1150 579 5 0 0 0 - - - 0;
#X obj 1184 555 bng 15 250 50 0 empty empty empty 17 7 0 10 #fcfcfc #000000 #000000;
#X obj 1150 555 * 2;
#X floatatom 1138 676 5 0 0 0 - - - 0;
#X obj 1138 628 line;
#X obj 846 786 *~ 0;
#X floatatom 886 577 5 0 0 0 - - - 0;
#X floatatom 966 588 5 0 0 0 - - - 0;
#X msg 967 567 100;
#X msg 887 556 25;
#X obj 843 659 lop~ 1800;
#X obj 351 29 route rev mod sample vol play start del;
#X obj 377 825 *~ 0.5;
#X obj 283 801 delwrite~ samp_del 1000;
#X obj 284 859 delread4~ samp_del 0;
#X connect 0 0 1 0;
#X connect 0 0 2 0;
#X connect 1 0 4 0;
#X connect 1 0 5 0;
#X connect 2 0 3 0;
#X connect 4 0 10 0;
#X connect 4 0 14 0;
#X connect 5 0 6 0;
#X connect 6 0 13 0;
#X connect 7 0 6 1;
#X connect 9 0 5 0;
#X connect 10 0 9 0;
#X connect 12 0 4 0;
#X connect 13 0 34 0;
#X connect 15 0 2 0;
#X connect 16 0 20 0;
#X connect 17 0 39 0;
#X connect 18 0 49 0;
#X connect 18 0 63 0;
#X connect 19 0 45 0;
#X connect 20 0 17 0;
#X connect 21 0 32 1;
#X connect 22 0 21 0;
#X connect 23 0 10 0;
#X connect 23 0 21 0;
#X connect 24 0 25 0;
#X connect 24 0 26 0;
#X connect 25 0 24 1;
#X connect 26 0 27 0;
#X connect 26 0 28 0;
#X connect 27 0 29 0;
#X connect 27 0 22 0;
#X connect 28 0 30 0;
#X connect 29 0 32 0;
#X connect 30 0 32 0;
#X connect 31 0 24 0;
#X connect 32 0 10 0;
#X connect 33 0 22 0;
#X connect 34 0 44 0;
#X connect 34 0 46 0;
#X connect 34 0 47 0;
#X connect 35 0 20 1;
#X connect 38 0 39 0;
#X connect 39 0 5 1;
#X connect 40 0 38 0;
#X connect 41 0 39 0;
#X connect 42 0 43 0;
#X connect 43 0 19 0;
#X connect 44 0 36 0;
#X connect 44 0 37 0;
#X connect 45 0 0 0;
#X connect 47 0 62 0;
#X connect 48 0 61 0;
#X connect 48 0 60 0;
#X connect 49 0 51 0;
#X connect 49 0 54 0;
#X connect 49 0 53 0;
#X connect 50 0 57 0;
#X connect 51 0 56 0;
#X connect 52 0 56 1;
#X connect 53 0 52 0;
#X connect 54 0 52 0;
#X connect 55 0 57 1;
#X connect 56 0 55 0;
#X connect 57 0 44 0;
#X connect 57 0 46 0;
#X connect 58 0 47 1;
#X connect 59 0 47 2;
#X connect 60 0 59 0;
#X connect 61 0 58 0;
#X connect 62 0 50 0;
#X connect 63 0 31 0;
#X connect 63 0 22 0;
#X connect 63 1 35 0;
#X connect 63 2 19 0;
#X connect 63 3 44 1;
#X connect 63 4 17 1;
#X connect 63 5 41 0;
#X connect 64 0 65 0;
#X connect 66 0 64 0;
#X restore 580 118 pd sampler;
#X text 332 44 change 6000 to connect to a different port;
#X text 62 46 Turn audio on;
#X text 187 178 send float in tempo;
#X msg 561 721 disconnect;
#X floatatom 545 886 0 0 0 0 - - - 0;
#X obj 591 886 print backward;
#X text 596 650 TUP \, FUDI;
#X obj 545 857 netsend -u;
#X msg 545 671 connect localhost 6001;
#X obj 1043 651 r audioViz;
#X floatatom 1043 675 5 0 0 0 - - - 0;
#X obj 533 548 loadbang;
#X obj 533 572 del 1000;
#X obj 189 72 route start bpm kick snare hhc cym clap bass synth mix sampler midi, f 71;
#N canvas -62 21 1924 1002 midi 0;
#X obj 943 258 f;
#X obj 980 259 + 1;
#X obj 943 286 mod 1;
#X obj 943 310 sel 0;
#X obj 943 334 f;
#X obj 981 334 + 1;
#N canvas 0 50 450 250 (subpatch) 0;
#X array midiRiff 8 float 3;
#A 0 0 0 0 0 0 0 0 0;
#X coords 0 0 8 12 200 140 1 0 0;
#X restore 1303 137 graph;
#N canvas 76 76 1190 590 (subpatch) 0;
#X array midiPattern 16 float 3;
#A 0 0 0 0 0 0 0 0 0 0 0 0 0 0 0 0 0;
#X coords 0 1 16 -1 200 140 1 0 0;
#X restore 1516 136 graph;
#X obj 783 128 inlet;
#X obj 783 207 route space;
#X obj 943 358 mod 8;
#X obj 1211 339 loadbang;
#X obj 782 276 route riffmod;
#X obj 89 191 baseconverter;
#X msg 177 150 0 1;
#X obj 99 223 list length;
#X floatatom 99 263 5 0 0 0 - - - 0;
#X msg 46 257 8;
#X obj 46 281 -;
#X floatatom 106 165 5 0 0 0 - - - 0;
#X listbox 89 512 20 0 0 0 - - - 0;
#X obj 89 535 list prepend;
#X floatatom 46 305 5 0 0 0 - - - 0;
#X msg 46 346 0 \$1;
#X listbox 46 442 20 0 0 0 - - - 0;
#X obj 1517 293 loadbang;
#X obj 177 117 loadbang;
#X obj 376 188 baseconverter;
#X msg 464 147 0 1;
#X obj 386 220 list length;
#X floatatom 386 260 5 0 0 0 - - - 0;
#X msg 333 254 8;
#X obj 333 278 -;
#X floatatom 393 162 5 0 0 0 - - - 0;
#X listbox 376 509 20 0 0 0 - - - 0;
#X obj 376 532 list prepend;
#X floatatom 333 302 5 0 0 0 - - - 0;
#X msg 333 343 0 \$1;
#X listbox 333 439 20 0 0 0 - - - 0;
#X msg 483 280 const \$1;
#X floatatom 483 227 5 0 0 0 - - - 0;
#X obj 483 188 loadbang;
#X obj 464 122 loadbang;
#X obj 306 59 unpack;
#X floatatom 1076 272 5 0 0 0 - - - 0;
#X floatatom 1050 222 5 0 0 0 - - - 0;
#X obj 943 231 r clock;
#X floatatom 943 457 5 0 0 0 - - - 0;
#X obj 763 506 mod 16;
#X obj 713 562 route patternmod;
#X obj 827 383 route pitch;
#X obj 943 430 + 0;
#X msg 488 429 const \$1;
#X floatatom 488 376 5 0 0 0 - - - 0;
#X obj 488 337 loadbang;
#X msg 1211 374 \; synthRiff 0 0 2 3 5 7 9 10 12;
#X obj 306 35 route bin;
#X obj 1020 555 noteout;
#X msg 1211 291 \; midiRiff 0 \$1 \$2 \$3 \$4 \$5 \$6 \$7 \$8;
#X msg 1517 316 \; midiPattern 0 0 0 0 0 0 0 0 0 0 0 0 0 0 0 0 0;
#X obj 943 382 tabread midiRiff;
#X msg 376 571 \; midiPattern 8 \$1 \$2 \$3 \$4 \$5 \$6 \$7 \$8;
#X msg 89 574 \; midiPattern 0 \$1 \$2 \$3 \$4 \$5 \$6 \$7 \$8;
#X obj 1095 380 loadbang;
#X obj 1095 404 del 100;
#X msg 1115 486 5;
#X obj 1004 407 change;
#X obj 1067 365 bng 19 250 50 0 empty empty empty 0 -10 0 12 #fcfcfc #000000 #000000;
#X obj 483 304 array define zeroes_MS 10000;
#X obj 488 453 array define zeroes_MMS 10000;
#X obj 333 367 array get zeroes_MMS;
#X obj 46 370 array get zeroes_MS;
#X floatatom 801 688 5 0 0 0 - - - 0;
#X obj 862 622 mod 16;
#X obj 1211 198 route riff;
#X obj 943 480 *;
#X obj 801 664 tabread midiPattern;
#X floatatom 943 504 5 0 0 0 - - - 0;
#X obj 801 711 * 127;
#X floatatom 801 735 5 0 0 0 - - - 0;
#X obj 1374 760 ctlout;
#X msg 1362 654 102;
#X obj 1398 588 bng 19 250 50 0 empty empty empty 0 -10 0 12 #fcfcfc #000000 #000000;
#X obj 1058 730 route stop;
#X msg 1058 754 0;
#X obj 943 406 + 60;
#X msg 1448 615 5;
#X obj 1524 600 bng 19 250 50 0 empty empty empty 0 -10 0 12 #fcfcfc #000000 #000000;
#X msg 1574 627 5;
#X msg 1488 666 103;
#X obj 1392 472 route rate crush end;
#X obj 1682 588 bng 19 250 50 0 empty empty empty 0 -10 0 12 #fcfcfc #000000 #000000;
#X msg 1732 615 5;
#X msg 1646 694 109;
#X connect 0 0 1 0;
#X connect 0 0 2 0;
#X connect 0 0 45 0;
#X connect 0 0 48 0;
#X connect 0 0 73 0;
#X connect 1 0 0 1;
#X connect 2 0 3 0;
#X connect 3 0 4 0;
#X connect 4 0 5 0;
#X connect 4 0 10 0;
#X connect 5 0 4 1;
#X connect 8 0 9 0;
#X connect 8 0 12 0;
#X connect 8 0 49 0;
#X connect 8 0 50 0;
#X connect 8 0 56 0;
#X connect 8 0 74 0;
#X connect 8 0 83 0;
#X connect 8 0 90 0;
#X connect 9 0 2 1;
#X connect 10 0 44 0;
#X connect 10 0 60 0;
#X connect 11 0 55 0;
#X connect 12 0 10 1;
#X connect 13 0 15 0;
#X connect 13 0 17 0;
#X connect 13 0 20 0;
#X connect 14 0 13 1;
#X connect 15 0 16 0;
#X connect 16 0 18 1;
#X connect 17 0 18 0;
#X connect 18 0 22 0;
#X connect 19 0 13 0;
#X connect 20 0 21 0;
#X connect 21 0 62 0;
#X connect 22 0 23 0;
#X connect 23 0 71 0;
#X connect 24 0 21 1;
#X connect 25 0 59 0;
#X connect 26 0 14 0;
#X connect 27 0 29 0;
#X connect 27 0 31 0;
#X connect 27 0 34 0;
#X connect 28 0 27 1;
#X connect 29 0 30 0;
#X connect 30 0 32 1;
#X connect 31 0 32 0;
#X connect 32 0 36 0;
#X connect 33 0 27 0;
#X connect 34 0 35 0;
#X connect 35 0 61 0;
#X connect 36 0 37 0;
#X connect 37 0 70 0;
#X connect 38 0 35 1;
#X connect 39 0 68 0;
#X connect 40 0 39 0;
#X connect 41 0 40 0;
#X connect 42 0 28 0;
#X connect 43 0 19 0;
#X connect 43 1 33 0;
#X connect 46 0 0 0;
#X connect 47 0 66 0;
#X connect 47 0 75 0;
#X connect 49 0 48 1;
#X connect 50 0 51 1;
#X connect 51 0 47 0;
#X connect 52 0 69 0;
#X connect 53 0 52 0;
#X connect 54 0 53 0;
#X connect 56 0 43 0;
#X connect 60 0 85 0;
#X connect 63 0 64 0;
#X connect 64 0 65 0;
#X connect 65 0 57 2;
#X connect 66 0 67 0;
#X connect 70 0 38 0;
#X connect 71 0 24 0;
#X connect 72 0 75 1;
#X connect 72 0 78 0;
#X connect 73 0 76 0;
#X connect 74 0 58 0;
#X connect 75 0 77 0;
#X connect 76 0 72 0;
#X connect 77 0 57 0;
#X connect 78 0 79 0;
#X connect 79 0 57 1;
#X connect 81 0 80 1;
#X connect 82 0 81 0;
#X connect 82 0 86 0;
#X connect 83 0 84 0;
#X connect 84 0 57 1;
#X connect 84 0 57 0;
#X connect 85 0 51 0;
#X connect 86 0 80 2;
#X connect 87 0 89 0;
#X connect 87 0 88 0;
#X connect 88 0 80 2;
#X connect 89 0 80 1;
#X connect 90 0 82 0;
#X connect 90 0 80 0;
#X connect 90 1 87 0;
#X connect 90 1 80 0;
#X connect 90 2 91 0;
#X connect 90 2 80 0;
#X connect 91 0 93 0;
#X connect 91 0 92 0;
#X connect 92 0 80 2;
#X connect 93 0 80 1;
#X restore 699 160 pd midi;
#X connect 1 0 27 0;
#X connect 2 0 3 0;
#X connect 9 0 0 0;
#X connect 17 0 21 0;
#X connect 21 0 18 0;
#X connect 21 1 19 0;
#X connect 22 0 21 0;
#X connect 23 0 21 0;
#X connect 23 0 24 0;
#X connect 25 0 26 0;
#X connect 26 0 22 0;
#X connect 27 0 9 0;
#X connect 27 1 9 1;
#X connect 27 2 5 0;
#X connect 27 3 6 0;
#X connect 27 4 7 0;
#X connect 27 5 12 0;
#X connect 27 6 8 0;
#X connect 27 7 10 0;
#X connect 27 8 11 0;
#X connect 27 9 4 0;
#X connect 27 10 13 0;
#X connect 27 11 28 0;
